<svg id="Layer_1" enable-background="new 0 0 256 256" height="512" viewBox="0 0 256 256" width="512" xmlns="http://www.w3.org/2000/svg"><g><g><path d="m252 148.769v-41.538h-22.987c-2.67-13.056-7.824-25.201-14.921-35.951l16.275-16.275-29.372-29.372-16.275 16.275c-10.75-7.097-22.895-12.251-35.951-14.921v-22.987h-41.538v22.987c-13.056 2.67-25.201 7.824-35.951 14.921l-16.275-16.275-29.373 29.372 16.276 16.275c-7.097 10.75-12.251 22.895-14.921 35.951h-22.987v41.538h22.986c2.67 13.056 7.824 25.201 14.921 35.951l-16.276 16.275 29.372 29.372 16.275-16.275c10.75 7.096 22.895 12.251 35.951 14.921v22.987h41.538v-22.986c13.056-2.67 25.201-7.825 35.951-14.921l16.275 16.275 29.372-29.372-16.275-16.275c7.097-10.75 12.251-22.895 14.921-35.951h22.989zm-124 41.394c-34.331 0-62.163-27.831-62.163-62.163 0-34.331 27.832-62.163 62.163-62.163 34.332 0 62.164 27.832 62.164 62.163-.001 34.332-27.832 62.163-62.164 62.163z" fill="#fcc24c"/></g><g><path d="m252 148.769v-41.538h-22.987c-2.67-13.056-7.824-25.201-14.921-35.951l16.275-16.275-29.372-29.372-16.275 16.275c-10.75-7.097-22.895-12.251-35.951-14.921v-22.987h-41.538v22.987c-13.056 2.67-25.201 7.824-35.951 14.921l-16.275-16.275-29.373 29.372 16.276 16.275c-7.097 10.75-12.251 22.895-14.921 35.951h-22.987v41.538h22.986c2.67 13.056 7.824 25.201 14.921 35.951l-16.276 16.275 29.372 29.372 16.275-16.275c10.75 7.096 22.895 12.251 35.951 14.921v22.987h41.538v-22.986c13.056-2.67 25.201-7.825 35.951-14.921l16.275 16.275 29.372-29.372-16.275-16.275c7.097-10.75 12.251-22.895 14.921-35.951h22.989zm-124 41.394c-34.331 0-62.163-27.831-62.163-62.163 0-34.331 27.832-62.163 62.163-62.163 34.332 0 62.164 27.832 62.164 62.163-.001 34.332-27.832 62.163-62.164 62.163z" fill="#fcc24c"/></g><g><path d="m148.769 254h-41.538c-1.104 0-2-.896-2-2v-21.367c-11.961-2.641-23.277-7.338-33.682-13.981l-15.13 15.13c-.78.781-2.048.781-2.828 0l-29.373-29.372c-.375-.375-.586-.884-.586-1.414s.211-1.039.586-1.414l15.13-15.13c-6.643-10.402-11.34-21.718-13.981-33.682h-21.367c-1.104 0-2-.896-2-2v-41.538c0-1.104.896-2 2-2h21.367c2.641-11.963 7.339-23.279 13.981-33.682l-15.13-15.13c-.375-.375-.586-.884-.586-1.414s.211-1.039.586-1.414l29.373-29.372c.75-.751 2.078-.75 2.828 0l15.13 15.13c10.404-6.643 21.72-11.34 33.682-13.981v-21.369c0-1.104.896-2 2-2h41.538c1.104 0 2 .896 2 2v21.367c11.963 2.641 23.279 7.339 33.682 13.981l15.13-15.13c.75-.75 2.078-.751 2.828 0l29.373 29.372c.375.375.586.884.586 1.414s-.211 1.039-.586 1.414l-15.13 15.13c6.642 10.402 11.339 21.718 13.981 33.682h21.367c1.104 0 2 .896 2 2v41.538c0 1.104-.896 2-2 2h-21.368c-2.642 11.964-7.339 23.28-13.981 33.682l15.13 15.13c.375.375.586.884.586 1.414s-.211 1.039-.586 1.414l-29.373 29.372c-.75.751-2.078.75-2.828 0l-15.129-15.13c-10.404 6.643-21.721 11.34-33.682 13.981v21.369c0 1.104-.895 2-2 2zm-39.538-4h37.538v-20.986c0-.95.668-1.769 1.599-1.959 12.581-2.573 24.44-7.496 35.25-14.631.792-.522 1.845-.417 2.516.255l14.86 14.86 26.544-26.543-14.861-14.861c-.672-.671-.778-1.723-.255-2.516 7.134-10.806 12.057-22.666 14.631-35.25.19-.931 1.009-1.599 1.959-1.599h20.988v-37.538h-20.987c-.95 0-1.769-.668-1.959-1.599-2.574-12.583-7.496-24.443-14.631-35.25-.523-.793-.417-1.845.255-2.516l14.861-14.861-26.544-26.543-14.861 14.861c-.671.672-1.723.779-2.516.255-10.808-7.135-22.667-12.058-35.25-14.631-.931-.19-1.599-1.009-1.599-1.959v-20.989h-37.538v20.987c0 .95-.668 1.769-1.599 1.959-12.582 2.573-24.441 7.496-35.25 14.631-.793.525-1.844.418-2.516-.255l-14.861-14.861-26.544 26.544 14.861 14.861c.672.671.778 1.723.255 2.516-7.135 10.808-12.058 22.667-14.631 35.25-.19.931-1.009 1.599-1.959 1.599h-20.987v37.538h20.987c.95 0 1.769.668 1.959 1.599 2.573 12.583 7.496 24.442 14.631 35.25.523.793.417 1.845-.255 2.516l-14.861 14.861 26.544 26.543 14.861-14.86c.671-.672 1.724-.779 2.516-.255 10.81 7.135 22.67 12.058 35.25 14.631.931.19 1.599 1.009 1.599 1.959zm18.769-57.837c-35.38 0-64.163-28.784-64.163-64.164 0-35.379 28.783-64.163 64.163-64.163s64.164 28.783 64.164 64.163-28.784 64.164-64.164 64.164zm0-124.326c-33.174 0-60.163 26.989-60.163 60.163s26.989 60.164 60.163 60.164 60.164-26.989 60.164-60.164c0-33.174-26.99-60.163-60.164-60.163z" fill="#690589"/></g><g><path d="m211.927 58.522-9.893 9.893c-1.626 1.626-1.99 4.166-.795 6.131 5.364 8.821 9.449 18.505 11.978 28.802.555 2.259 2.526 3.882 4.853 3.882h10.943c-2.67-13.055-7.824-25.201-14.921-35.951l16.275-16.275-29.372-29.372-7.461 7.461 18.394 18.394c1.942 1.943 1.942 5.093-.001 7.035z" fill="#dea42e"/></g><g><path d="m237.077 107.231h14.923v41.538h-14.923z" fill="#dea42e"/></g><g><path d="m229.013 148.769h-10.943c-2.326 0-4.298 1.623-4.853 3.882-2.529 10.298-6.614 19.981-11.978 28.802-1.195 1.965-.832 4.505.795 6.131l9.893 9.893c1.943 1.943 1.943 5.092 0 7.035l-18.394 18.394 7.461 7.461 29.372-29.372-16.275-16.275c7.098-10.75 12.252-22.895 14.922-35.951z" fill="#dea42e"/></g><g><path d="m44.073 58.522 9.893 9.893c1.626 1.626 1.99 4.166.795 6.131-5.364 8.821-9.449 18.505-11.978 28.802-.555 2.259-2.526 3.882-4.853 3.882h-10.943c2.67-13.055 7.824-25.201 14.921-35.951l-16.275-16.274 29.372-29.372 7.461 7.461-18.393 18.394c-1.943 1.942-1.943 5.092 0 7.034z" fill="#fce06a"/></g><g><path d="m4 107.231h14.923v41.538h-14.923z" fill="#fce06a"/></g><g><path d="m26.987 148.769h10.943c2.326 0 4.298 1.623 4.853 3.882 2.529 10.298 6.614 19.981 11.978 28.802 1.195 1.965.832 4.505-.795 6.131l-9.893 9.893c-1.943 1.943-1.943 5.092 0 7.035l18.394 18.394-7.461 7.461-29.372-29.372 16.276-16.275c-7.099-10.75-12.253-22.895-14.923-35.951z" fill="#fce06a"/></g><g><path d="m148.769 254h-41.538c-1.104 0-2-.896-2-2v-21.367c-11.961-2.641-23.277-7.338-33.682-13.981l-15.13 15.13c-.78.781-2.048.781-2.828 0l-29.373-29.372c-.375-.375-.586-.884-.586-1.414s.211-1.039.586-1.414l15.13-15.13c-6.643-10.402-11.34-21.718-13.981-33.682h-21.367c-1.104 0-2-.896-2-2v-41.538c0-1.104.896-2 2-2h21.367c2.641-11.963 7.339-23.279 13.981-33.682l-15.13-15.13c-.375-.375-.586-.884-.586-1.414s.211-1.039.586-1.414l29.373-29.372c.75-.751 2.078-.75 2.828 0l15.13 15.13c10.404-6.643 21.72-11.34 33.682-13.981v-21.369c0-1.104.896-2 2-2h41.538c1.104 0 2 .896 2 2v21.367c11.963 2.641 23.279 7.339 33.682 13.981l15.13-15.13c.75-.75 2.078-.751 2.828 0l29.373 29.372c.375.375.586.884.586 1.414s-.211 1.039-.586 1.414l-15.13 15.13c6.642 10.402 11.339 21.718 13.981 33.682h21.367c1.104 0 2 .896 2 2v41.538c0 1.104-.896 2-2 2h-21.368c-2.642 11.964-7.339 23.28-13.981 33.682l15.13 15.13c.375.375.586.884.586 1.414s-.211 1.039-.586 1.414l-29.373 29.372c-.75.751-2.078.75-2.828 0l-15.129-15.13c-10.404 6.643-21.721 11.34-33.682 13.981v21.369c0 1.104-.895 2-2 2zm-39.538-4h37.538v-20.986c0-.95.668-1.769 1.599-1.959 12.581-2.573 24.44-7.496 35.25-14.631.792-.522 1.845-.417 2.516.255l14.86 14.86 26.544-26.543-14.861-14.861c-.672-.671-.778-1.723-.255-2.516 7.134-10.806 12.057-22.666 14.631-35.25.19-.931 1.009-1.599 1.959-1.599h20.988v-37.538h-20.987c-.95 0-1.769-.668-1.959-1.599-2.574-12.583-7.496-24.443-14.631-35.25-.523-.793-.417-1.845.255-2.516l14.861-14.861-26.544-26.543-14.861 14.861c-.671.672-1.723.779-2.516.255-10.808-7.135-22.667-12.058-35.25-14.631-.931-.19-1.599-1.009-1.599-1.959v-20.989h-37.538v20.987c0 .95-.668 1.769-1.599 1.959-12.582 2.573-24.441 7.496-35.25 14.631-.793.525-1.844.418-2.516-.255l-14.861-14.861-26.544 26.544 14.861 14.861c.672.671.778 1.723.255 2.516-7.135 10.808-12.058 22.667-14.631 35.25-.19.931-1.009 1.599-1.959 1.599h-20.987v37.538h20.987c.95 0 1.769.668 1.959 1.599 2.573 12.583 7.496 24.442 14.631 35.25.523.793.417 1.845-.255 2.516l-14.861 14.861 26.544 26.543 14.861-14.86c.671-.672 1.724-.779 2.516-.255 10.81 7.135 22.67 12.058 35.25 14.631.931.19 1.599 1.009 1.599 1.959zm18.769-57.837c-35.38 0-64.163-28.784-64.163-64.164 0-35.379 28.783-64.163 64.163-64.163s64.164 28.783 64.164 64.163-28.784 64.164-64.164 64.164zm0-124.326c-33.174 0-60.163 26.989-60.163 60.163s26.989 60.164 60.163 60.164 60.164-26.989 60.164-60.164c0-33.174-26.99-60.163-60.164-60.163z" fill="#690589"/></g><g><path d="m112.692 67.837v-17.676l15.308 8.838 15.308 8.838-15.308 8.838-15.308 8.838z" fill="#8852a8"/></g><g><path d="m143.308 188.163v17.676l-15.308-8.838-15.308-8.838 15.308-8.838 15.308-8.838z" fill="#8852a8"/></g><g><path d="m112.692 87.513c-.345 0-.69-.089-1-.268-.619-.357-1-1.018-1-1.732v-35.352c0-.714.381-1.375 1-1.732s1.381-.357 2 0l30.615 17.676c.619.357 1 1.018 1 1.732s-.381 1.375-1 1.732l-30.615 17.676c-.309.178-.654.268-1 .268zm2-33.888v28.424l24.615-14.212z" fill="#690589"/></g><g><path d="m143.308 207.839c-.345 0-.69-.089-1-.268l-30.615-17.676c-.619-.357-1-1.018-1-1.732s.381-1.375 1-1.732l30.615-17.676c.619-.357 1.381-.357 2 0s1 1.018 1 1.732v35.352c0 .714-.381 1.375-1 1.732-.31.179-.655.268-1 .268zm-26.616-19.676 24.615 14.212v-28.424z" fill="#690589"/></g><g><g><path d="m120.598 156.64-34.963-33.141 12.065-12.725 23.305 22.091 37.736-33.505 11.624 13.132z" fill="#526faa"/></g></g><g><g><g><path d="m120.598 158.64c-.496 0-.991-.184-1.376-.548l-34.962-33.141c-.385-.365-.609-.868-.624-1.398s.183-1.044.548-1.429l12.065-12.726c.76-.801 2.026-.835 2.827-.076l21.973 20.829 36.364-32.287c.396-.352.916-.537 1.448-.501.53.032 1.025.273 1.377.671l11.623 13.132c.731.827.655 2.089-.17 2.822l-49.766 44.148c-.379.337-.853.504-1.327.504zm-32.135-35.216 32.18 30.503 46.899-41.605-8.971-10.136-36.239 32.175c-.774.689-1.949.67-2.704-.044l-21.853-20.715z" fill="#690589"/></g></g></g><g><path d="m18.923 136c-1.104 0-2-.896-2-2v-12c0-1.104.896-2 2-2s2 .896 2 2v12c0 1.104-.896 2-2 2z" fill="#690589"/></g></g></svg>